<svg width="16" height="15" viewBox="0 0 16 15" fill="none" xmlns="http://www.w3.org/2000/svg">
<path d="M14.9627 5.2067L10.4996 4.55806L8.50448 0.513337C8.44999 0.402594 8.36034 0.312946 8.2496 0.258454C7.97186 0.121344 7.63436 0.235602 7.49549 0.513337L5.50038 4.55806L1.03729 5.2067C0.914245 5.22427 0.801745 5.28228 0.715612 5.37017C0.611482 5.4772 0.554102 5.62119 0.55608 5.7705C0.558057 5.91981 0.619231 6.06223 0.726159 6.16646L3.95526 9.3147L3.19237 13.7602C3.17448 13.8636 3.18592 13.97 3.2254 14.0672C3.26488 14.1645 3.33082 14.2487 3.41573 14.3104C3.50065 14.372 3.60114 14.4087 3.70583 14.4161C3.81051 14.4236 3.91519 14.4016 4.00799 14.3526L7.99999 12.2538L11.992 14.3526C12.101 14.4106 12.2275 14.4299 12.3488 14.4088C12.6547 14.3561 12.8603 14.0661 12.8076 13.7602L12.0447 9.3147L15.2738 6.16646C15.3617 6.08033 15.4197 5.96783 15.4373 5.84478C15.4848 5.53716 15.2703 5.2524 14.9627 5.2067Z" fill="#FADB14"/>
</svg>
